<?xml version="1.0" encoding="UTF-8" standalone="no"?>
<!DOCTYPE svg PUBLIC "-//W3C//DTD SVG 1.1//EN"
 "http://www.w3.org/Graphics/SVG/1.1/DTD/svg11.dtd">
<!-- Generated by graphviz version 2.38.0 (20140413.2041)
 -->
<!-- Title: IGraphicsWeb::Font Pages: 1 -->
<svg width="294pt" height="140pt"
 viewBox="0.00 0.00 294.00 140.00" xmlns="http://www.w3.org/2000/svg" xmlns:xlink="http://www.w3.org/1999/xlink">
<g id="graph0" class="graph" transform="scale(1 1) rotate(0) translate(4 136)">
<title>IGraphicsWeb::Font</title>
<polygon fill="white" stroke="none" points="-4,4 -4,-136 290,-136 290,4 -4,4"/>
<!-- Node1 -->
<g id="node1" class="node"><title>Node1</title>
<polygon fill="#bfbfbf" stroke="black" points="83.5,-56.5 83.5,-75.5 190.5,-75.5 190.5,-56.5 83.5,-56.5"/>
<text text-anchor="middle" x="137" y="-63.5" font-family="Helvetica,sans-Serif" font-size="10.00">IGraphicsWeb::Font</text>
</g>
<!-- Node3 -->
<g id="node3" class="node"><title>Node3</title>
<g id="a_node3"><a xlink:href="class_i_graphics_web_1_1_file_font.html" target="_top" xlink:title="IGraphicsWeb::FileFont">
<polygon fill="white" stroke="black" points="0,-0.5 0,-19.5 122,-19.5 122,-0.5 0,-0.5"/>
<text text-anchor="middle" x="61" y="-7.5" font-family="Helvetica,sans-Serif" font-size="10.00">IGraphicsWeb::FileFont</text>
</a>
</g>
</g>
<!-- Node1&#45;&gt;Node3 -->
<g id="edge2" class="edge"><title>Node1&#45;&gt;Node3</title>
<path fill="none" stroke="midnightblue" d="M116.424,-50.3804C102.688,-40.6204 85.0747,-28.1057 73.4329,-19.8339"/>
<polygon fill="midnightblue" stroke="midnightblue" points="114.61,-53.385 124.789,-56.324 118.665,-47.6787 114.61,-53.385"/>
</g>
<!-- Node4 -->
<g id="node4" class="node"><title>Node4</title>
<g id="a_node4"><a xlink:href="class_i_graphics_web_1_1_memory_font.html" target="_top" xlink:title="IGraphicsWeb::MemoryFont">
<polygon fill="white" stroke="black" points="140,-0.5 140,-19.5 286,-19.5 286,-0.5 140,-0.5"/>
<text text-anchor="middle" x="213" y="-7.5" font-family="Helvetica,sans-Serif" font-size="10.00">IGraphicsWeb::MemoryFont</text>
</a>
</g>
</g>
<!-- Node1&#45;&gt;Node4 -->
<g id="edge3" class="edge"><title>Node1&#45;&gt;Node4</title>
<path fill="none" stroke="midnightblue" d="M157.576,-50.3804C171.312,-40.6204 188.925,-28.1057 200.567,-19.8339"/>
<polygon fill="midnightblue" stroke="midnightblue" points="155.335,-47.6787 149.211,-56.324 159.39,-53.385 155.335,-47.6787"/>
</g>
<!-- Node2 -->
<g id="node2" class="node"><title>Node2</title>
<g id="a_node2"><a xlink:title="/todo ">
<polygon fill="white" stroke="#bfbfbf" points="98,-112.5 98,-131.5 176,-131.5 176,-112.5 98,-112.5"/>
<text text-anchor="middle" x="137" y="-119.5" font-family="Helvetica,sans-Serif" font-size="10.00">PlatformFont</text>
</a>
</g>
</g>
<!-- Node2&#45;&gt;Node1 -->
<g id="edge1" class="edge"><title>Node2&#45;&gt;Node1</title>
<path fill="none" stroke="midnightblue" d="M137,-101.805C137,-92.9102 137,-82.7798 137,-75.7511"/>
<polygon fill="midnightblue" stroke="midnightblue" points="133.5,-102.083 137,-112.083 140.5,-102.083 133.5,-102.083"/>
</g>
</g>
</svg>
